<svg xmlns="http://www.w3.org/2000/svg" viewBox="0 0 512 512"><defs><linearGradient id="a" x1="43.14" y1="116.17" x2="500.72" y2="416.76" gradientUnits="userSpaceOnUse"><stop offset=".03" stop-color="#54c7ec"/><stop offset=".13" stop-color="#51c0e5"/><stop offset=".28" stop-color="#49aed1" stop-opacity=".98"/><stop offset=".47" stop-color="#3b8fb1" stop-opacity=".96"/><stop offset=".68" stop-color="#296584" stop-opacity=".94"/><stop offset=".91" stop-color="#112f4b" stop-opacity=".9"/><stop offset=".93" stop-color="#0f2b46" stop-opacity=".9"/></linearGradient></defs><circle cx="256" cy="256" r="256" style="fill:url(#a)"/><path d="m269.17 302.47-38.45-38 .46-.46a265.2 265.2 0 0 0 56.15-98.83h44.35v-30.27h-106v-30.27h-30.22v30.27H89.51V165h169.06a237.7 237.7 0 0 1-48 81.13 236.92 236.92 0 0 1-35-50.7h-30.21a265.86 265.86 0 0 0 45.1 69l-77 76L134.91 362l75.68-75.68 47.07 47.07Zm85.21-76.74h-30.27L256 407.36h30.27l17-45.41h71.9l17.1 45.41h30.27Zm-39.65 106 24.52-65.54 24.52 65.54Z" style="fill:#fff"/></svg>
